name 900006_16ik_lsw.mot
datacolumns 165
datarows 4
range 0.46666667 0.49166667
cursor 1.0 1.0 0.0
keys m_key
wrap
enforce_loops no
enforce_constraints no
calc_derivatives 0.008333
event_color 1.000000 0.000000 1.000000
endheader

                time	          calcn_r_tx	          calcn_r_ty	          calcn_r_tz	          calcn_r_r1	          calcn_r_r2	          calcn_r_r3	          calcn_l_tx	          calcn_l_ty	          calcn_l_tz	          calcn_l_r1	          calcn_l_r2	          calcn_l_r3	           pelvis_tz	           pelvis_tx	           pelvis_ty	         pelvis_tilt	         pelvis_list	     pelvis_rotation	       hip_flexion_r	     hip_adduction_r	      hip_rotation_r	        knee_angle_r	       ankle_angle_r	    subtalar_angle_r	         mtp_angle_r	       hip_flexion_l	     hip_adduction_l	      hip_rotation_l	        knee_angle_l	       ankle_angle_l	    subtalar_angle_l	         mtp_angle_l	    lumbar_extension	      lumbar_bending	     lumbar_rotation	     ground_force_px	     ground_force_py	     ground_force_pz	     ground_force_vx	     ground_force_vy	     ground_force_vz	     ground_force_px	     ground_force_py	     ground_force_pz	     ground_force_vx	     ground_force_vy	     ground_force_vz	     ground_torque_x	     ground_torque_y	     ground_torque_z	     ground_torque_x	     ground_torque_y	     ground_torque_z	           midhip_px	           midhip_py	           midhip_pz	            hip_r_px	            hip_r_py	            hip_r_pz	            hip_l_px	            hip_l_py	            hip_l_pz	           knee_r_px	           knee_r_py	           knee_r_pz	           knee_l_px	           knee_l_py	           knee_l_pz	          ankle_r_px	          ankle_r_py	          ankle_r_pz	          ankle_l_px	          ankle_l_py	          ankle_l_pz	          midasis_px	          midasis_py	          midasis_pz	           asis_r_px	           asis_r_py	           asis_r_pz	           asis_l_px	           asis_l_py	           asis_l_pz	           psis_r_px	           psis_r_py	           psis_r_pz	           psis_l_px	           psis_l_py	           psis_l_pz	     epicondLat_r_px	     epicondLat_r_py	     epicondLat_r_pz	     epicondLat_l_px	     epicondLat_l_py	     epicondLat_l_pz	     epicondMed_r_px	     epicondMed_r_py	     epicondMed_r_pz	     epicondMed_l_px	     epicondMed_l_py	     epicondMed_l_pz	   malleolusLat_r_px	   malleolusLat_r_py	   malleolusLat_r_pz	   malleolusLat_l_px	   malleolusLat_l_py	   malleolusLat_l_pz	  malleolusMedv_r_px	  malleolusMedv_r_py	  malleolusMedv_r_pz	  malleolusMedv_l_px	  malleolusMedv_l_py	  malleolusMedv_l_pz	     sternalnotch_px	     sternalnotch_py	     sternalnotch_pz	   xyphoidprocess_px	   xyphoidprocess_py	   xyphoidprocess_pz	             neck_px	             neck_py	             neck_pz	            toe_r_px	            toe_r_py	            toe_r_pz	            toe_l_px	            toe_l_py	            toe_l_pz	      thighwand_r_px	      thighwand_r_py	      thighwand_r_pz	      thighwand_l_px	      thighwand_l_py	      thighwand_l_pz	      upperleg1_r_px	      upperleg1_r_py	      upperleg1_r_pz	      upperleg1_l_px	      upperleg1_l_py	      upperleg1_l_pz	      upperleg2_r_px	      upperleg2_r_py	      upperleg2_r_pz	      upperleg2_l_px	      upperleg2_l_py	      upperleg2_l_pz	      shankwand_r_px	      shankwand_r_py	      shankwand_r_pz	      shankwand_l_px	      shankwand_l_py	      shankwand_l_pz	      lowerleg1_r_px	      lowerleg1_r_py	      lowerleg1_r_pz	      lowerleg1_l_px	      lowerleg1_l_py	      lowerleg1_l_pz	    subclavicle_r_px	    subclavicle_r_py	    subclavicle_r_pz	    subclavicle_l_px	    subclavicle_l_py	    subclavicle_l_pz	
          0.46666667	          1.65727724	          0.05342387	         -0.15953161	         -0.40433579	         -5.42458045	          1.13254176	          1.43916103	          0.03683058	         -0.25885511	         -4.37297680	          5.36314992	         -2.45762164	         -0.25533617	          1.66140389	          0.82844027	          2.58985539	         -2.10650975	          1.16368760	         20.55805226	          0.15941190	         -5.92423813	        -28.39015198	          6.51122517	          0.00000000	          0.00000000	         -6.97070879	          3.58001687	         -6.10417184	         -8.84857585	         11.06242898	          0.00000000	          0.00000000	         -4.61365530	          3.60337109	         -5.37865218	          1.90698365	          0.00000000	         -0.20720503	         -0.00000000	         -0.00000000	         -0.00000000	          1.59436304	          0.00000000	         -0.27503571	         -4.60989545	        425.49026102	          7.23058140	          0.00000000	          0.00000000	          0.00000000	          0.00000000	         -0.30071642	          0.00000000	          1.62603487	          0.76804969	         -0.25762538	          1.61937758	          0.76806504	         -0.20058502	          1.63269214	          0.76803425	         -0.31466580	          1.70601449	          0.42513942	         -0.16539004	          1.53687055	          0.43202572	         -0.28831946	          1.70912885	          0.07701452	         -0.16248454	          1.48882910	          0.06900600	         -0.26276128	          1.65964855	          0.84121166	         -0.25435871	          1.66203202	          0.84755217	         -0.14405480	          1.65726477	          0.83487154	         -0.36466334	          1.48364274	          0.86995140	         -0.21575075	          1.48719385	          0.86584822	         -0.26872140	          1.73246009	          0.43493139	         -0.10579991	          1.55820333	          0.41042815	         -0.34573769	          1.72333996	          0.42451200	         -0.22438537	          1.56807464	          0.42382759	         -0.23098698	          1.69999220	          0.07769578	         -0.12612072	          1.47815216	          0.06859248	         -0.29766196	          1.71367609	          0.07240612	         -0.19564731	          1.49022088	          0.07286441	         -0.22947222	          1.65782096	          1.19209775	         -0.26796820	          1.66711764	          1.09036012	         -0.27027446	          1.54864599	          1.26225783	         -0.26931111	          1.78942278	          0.06410977	         -0.14754187	          1.57360081	          0.04560554	         -0.27584168	          1.79693957	          0.60742508	         -0.13944556	          1.68311228	          0.54941932	         -0.38095367	          1.73331020	          0.62457281	         -0.10669871	          1.67515298	          0.59926896	         -0.31634616	          1.74288874	          0.56733094	         -0.10881827	          1.65858400	          0.54395792	         -0.30469404	          1.82792365	          0.19611189	         -0.12766307	          1.48752275	          0.16248945	         -0.39412683	          1.75347073	          0.18157259	         -0.15169700	          1.49659801	          0.15854017	         -0.31671141	          1.65657162	          1.19213103	         -0.21183493	          1.66427431	          1.19260941	         -0.31754761	
          0.47500000	          1.67916907	          0.05165061	         -0.16214671	          0.11259490	         -5.53474283	          2.02540574	          1.44021915	          0.03725065	         -0.25851840	         -4.37400152	          5.27702709	         -2.52834679	         -0.25540166	          1.66770534	          0.82775725	          2.53004827	         -2.05921607	          0.96210101	         20.81826728	          0.32071310	         -6.17309469	        -26.23735133	          4.99341707	          0.00000000	          0.00000000	         -7.43526559	          3.72595721	         -6.23506795	         -8.68062178	         11.36804147	          0.00000000	          0.00000000	         -4.55186489	          3.61838718	         -5.27389830	          1.90996386	          0.00000000	         -0.20832538	         -0.00000000	         -0.00000000	         -0.00000000	          1.59582324	          0.00000000	         -0.27532501	         -2.57835605	        424.27862966	          7.23970872	          0.00000000	          0.00000000	          0.00000000	          0.00000000	         -0.30360716	          0.00000000	          1.63210177	          0.76761037	         -0.25772624	          1.62535565	          0.76761418	         -0.20069639	          1.63884774	          0.76760643	         -0.31475623	          1.71166778	          0.42471203	         -0.16646796	          1.54036465	          0.43208517	         -0.28853556	          1.73002188	          0.07626387	         -0.16417788	          1.48920320	          0.06939459	         -0.26290856	          1.66585420	          0.84070990	         -0.25439979	          1.66808966	          0.84699626	         -0.14412195	          1.66361838	          0.83442370	         -0.36467843	          1.48971849	          0.86973900	         -0.21598761	          1.49355552	          0.86553563	         -0.26894765	          1.73925516	          0.43474116	         -0.10685893	          1.56097198	          0.41050516	         -0.34592865	          1.72901495	          0.42408240	         -0.22471403	          1.57160778	          0.42356789	         -0.23119062	          1.72086968	          0.07651566	         -0.12781200	          1.47840282	          0.06908289	         -0.29777237	          1.73455587	          0.07234897	         -0.19744924	          1.49038724	          0.07313304	         -0.22955480	          1.66429496	          1.19151819	         -0.26806864	          1.67353481	          1.08977660	         -0.27042579	          1.55518738	          1.26173559	         -0.26965981	          1.81113170	          0.06499319	         -0.14933991	          1.57380969	          0.04568839	         -0.27597797	          1.80278264	          0.60714584	         -0.13981853	          1.68725372	          0.54845790	         -0.38115895	          1.73909665	          0.62414477	         -0.10702896	          1.67961901	          0.59849963	         -0.31642402	          1.74864695	          0.56686402	         -0.10914864	          1.66275947	          0.54329421	         -0.30482332	          1.84413823	          0.19992864	         -0.12913524	          1.48812385	          0.16299938	         -0.39420114	          1.77042540	          0.18273696	         -0.15290432	          1.49714553	          0.15900668	         -0.31656018	          1.66304677	          1.19152416	         -0.21190186	          1.67074802	          1.19205102	         -0.31768171	
          0.48333333	          1.70003908	          0.05008420	         -0.16340263	          0.40427792	         -5.42604392	          3.48769387	          1.44006442	          0.03802672	         -0.25883474	         -4.26303910	          5.43289801	         -2.89293666	         -0.25548400	          1.67418621	          0.82712758	          2.42310455	         -2.05186643	          0.99366842	         21.04204592	          0.46587117	         -6.27865386	        -24.21680030	          4.29767410	          0.00000000	          0.00000000	         -7.92204940	          3.69401548	         -6.35044446	         -8.53925964	         11.46368177	          0.00000000	          0.00000000	         -4.51163968	          3.57186319	         -5.17823183	          1.91261560	          0.00000000	         -0.20917813	          0.00000000	          0.00000000	          0.00000000	          1.59714063	          0.00000000	         -0.27558862	         -0.42481996	        423.04567317	          7.26459921	          0.00000000	         -0.00000000	          0.00000000	          0.00000000	         -0.31425767	          0.00000000	          1.63822030	          0.76711814	         -0.25783379	          1.63138561	          0.76708912	         -0.20081457	          1.64505473	          0.76714705	         -0.31485327	          1.71778276	          0.42397219	         -0.16762985	          1.54421319	          0.43174810	         -0.28877573	          1.75056659	          0.07587304	         -0.16580370	          1.48957539	          0.06980017	         -0.26306703	          1.67211900	          0.84015065	         -0.25442014	          1.67421424	          0.84634338	         -0.14419315	          1.67002346	          0.83395780	         -0.36464793	          1.49588485	          0.86945974	         -0.21620703	          1.49998485	          0.86522038	         -0.26912013	          1.74581064	          0.43441012	         -0.10799129	          1.56376082	          0.41059484	         -0.34614545	          1.73524687	          0.42335520	         -0.22503031	          1.57551469	          0.42285564	         -0.23153887	          1.74136776	          0.07571226	         -0.12944905	          1.47866163	          0.06958912	         -0.29789653	          1.75506378	          0.07264517	         -0.19918189	          1.49040718	          0.07346999	         -0.22963032	          1.67075962	          1.19090266	         -0.26812424	          1.67992530	          1.08915452	         -0.27048314	          1.56177169	          1.26117012	         -0.27000149	          1.83237685	          0.06624404	         -0.15116287	          1.57400695	          0.04577291	         -0.27614695	          1.80862464	          0.60663207	         -0.14022881	          1.69136860	          0.54750978	         -0.38138011	          1.74467302	          0.62350697	         -0.10743013	          1.68388133	          0.59767070	         -0.31642909	          1.75437886	          0.56620898	         -0.10951223	          1.66693572	          0.54259023	         -0.30496071	          1.85978574	          0.20384715	         -0.13044785	          1.48876325	          0.16352160	         -0.39431682	          1.78693014	          0.18413923	         -0.15406402	          1.49757697	          0.15954280	         -0.31641112	          1.66953883	          1.19091112	         -0.21186136	          1.67718983	          1.19142953	         -0.31783661	
          0.49166667	          1.72109032	          0.04891693	         -0.16516897	          0.76308187	         -5.38066992	          4.57316005	          1.44080482	          0.03863359	         -0.25884529	         -4.21814063	          5.49616009	         -3.10106694	         -0.25581435	          1.68095494	          0.82632679	          2.34047260	         -1.99083077	          0.93050494	         21.20979729	          0.56769580	         -6.42752027	        -22.10470440	          3.14588577	          0.00000000	          0.00000000	         -8.41294523	          3.80009858	         -6.47501127	         -8.37348067	         11.67626999	          0.00000000	          0.00000000	         -4.46934078	          3.47447744	         -5.04263659	          1.91476245	          0.00000000	         -0.20986966	         -0.00000000	         -0.00000000	         -0.00000000	          1.59834351	          0.00000000	         -0.27582272	          1.83660251	        421.99397626	          7.31414513	          0.00000000	          0.00000000	          0.00000000	          0.00000000	         -0.32414746	          0.00000000	          1.64441079	          0.76656765	         -0.25796053	          1.63749543	          0.76648344	         -0.20095114	          1.65132583	          0.76665179	         -0.31497030	          1.72428296	          0.42294308	         -0.16885464	          1.54815842	          0.43125647	         -0.28903351	          1.77067403	          0.07582439	         -0.16736881	          1.48995000	          0.07023028	         -0.26323035	          1.67844891	          0.83953386	         -0.25443157	          1.68042259	          0.84559686	         -0.14427762	          1.67647503	          0.83347047	         -0.36458625	          1.50218152	          0.86908846	         -0.21641171	          1.50648238	          0.86488821	         -0.26923272	          1.75218430	          0.43394498	         -0.10918148	          1.56658903	          0.41068529	         -0.34638170	          1.74196428	          0.42236418	         -0.22539479	          1.57954341	          0.42193732	         -0.23195836	          1.76139651	          0.07526595	         -0.13103850	          1.47894061	          0.07011691	         -0.29803051	          1.77513014	          0.07324109	         -0.20084223	          1.49033199	          0.07389398	         -0.22970249	          1.67721977	          1.19024234	         -0.26812792	          1.68629074	          1.08848499	         -0.27044991	          1.56838750	          1.26056476	         -0.27026049	          1.85304974	          0.06785303	         -0.15300868	          1.57419575	          0.04585723	         -0.27634239	          1.81451141	          0.60589405	         -0.14067564	          1.69548607	          0.54658170	         -0.38162157	          1.75010764	          0.62264762	         -0.10790502	          1.68808954	          0.59676492	         -0.31641361	          1.76010843	          0.56535947	         -0.10992690	          1.67111926	          0.54181343	         -0.30511275	          1.87482579	          0.20782633	         -0.13160796	          1.48947426	          0.16404859	         -0.39447996	          1.80293271	          0.18571726	         -0.15518718	          1.49795891	          0.16014562	         -0.31629224	          1.67605060	          1.19027707	         -0.21173212	          1.68360617	          1.19074124	         -0.31797907	
